<mxfile host="app.diagrams.net" modified="2023-10-08T19:44:07.640Z" agent="Mozilla/5.0 (Windows NT 10.0; Win64; x64) AppleWebKit/537.36 (KHTML, like Gecko) Chrome/116.0.0.0 Safari/537.36 OPR/102.0.0.0 (Edition std-1)" etag="zUiMywxZUIQIwhYvmQu6" version="22.0.4" type="github">
  <diagram name="Page-1" id="84ofZluWDMKhi9lPwI_I">
    <mxGraphModel dx="1393" dy="758" grid="1" gridSize="10" guides="1" tooltips="1" connect="1" arrows="1" fold="1" page="1" pageScale="1" pageWidth="827" pageHeight="1169" math="0" shadow="0">
      <root>
        <mxCell id="0" />
        <mxCell id="1" parent="0" />
        <UserObject label="" link="https://github.com/Trevezan/PortfolioGustavo.git" id="X4vbP3AqPGzp89t7xBtQ-2">
          <mxCell style="rounded=1;whiteSpace=wrap;html=1;" vertex="1" parent="1">
            <mxGeometry x="120" y="30" width="570" height="1030" as="geometry" />
          </mxCell>
        </UserObject>
        <mxCell id="X4vbP3AqPGzp89t7xBtQ-3" value="Picture" style="ellipse;whiteSpace=wrap;html=1;" vertex="1" parent="1">
          <mxGeometry x="150" y="70" width="120" height="80" as="geometry" />
        </mxCell>
        <mxCell id="X4vbP3AqPGzp89t7xBtQ-4" value="&lt;h1&gt;about me:&lt;/h1&gt;&lt;div&gt;Name&lt;/div&gt;&lt;div&gt;&lt;br&gt;&lt;/div&gt;&lt;div&gt;área de trabalho(back/front/mobile)&lt;/div&gt;" style="text;html=1;strokeColor=none;fillColor=none;spacing=5;spacingTop=-20;whiteSpace=wrap;overflow=hidden;rounded=0;" vertex="1" parent="1">
          <mxGeometry x="350" y="60" width="260" height="120" as="geometry" />
        </mxCell>
        <mxCell id="X4vbP3AqPGzp89t7xBtQ-5" value="Diplomas" style="rounded=1;whiteSpace=wrap;html=1;" vertex="1" parent="1">
          <mxGeometry x="200" y="210" width="120" height="60" as="geometry" />
        </mxCell>
        <mxCell id="X4vbP3AqPGzp89t7xBtQ-6" value="Experiências" style="rounded=1;whiteSpace=wrap;html=1;" vertex="1" parent="1">
          <mxGeometry x="345" y="210" width="120" height="60" as="geometry" />
        </mxCell>
        <mxCell id="X4vbP3AqPGzp89t7xBtQ-7" value="Contato" style="rounded=1;whiteSpace=wrap;html=1;" vertex="1" parent="1">
          <mxGeometry x="490" y="210" width="120" height="60" as="geometry" />
        </mxCell>
        <mxCell id="X4vbP3AqPGzp89t7xBtQ-8" value="" style="rounded=1;whiteSpace=wrap;html=1;" vertex="1" parent="1">
          <mxGeometry x="130" y="375" width="550" height="150" as="geometry" />
        </mxCell>
        <mxCell id="X4vbP3AqPGzp89t7xBtQ-9" value="" style="rounded=1;whiteSpace=wrap;html=1;" vertex="1" parent="1">
          <mxGeometry x="130" y="590" width="550" height="150" as="geometry" />
        </mxCell>
        <mxCell id="X4vbP3AqPGzp89t7xBtQ-10" value="&lt;h1&gt;Faculdades&lt;/h1&gt;&lt;p&gt;Etc&lt;br&gt;Etc&lt;br&gt;Etc&lt;/p&gt;" style="text;html=1;strokeColor=none;fillColor=none;spacing=5;spacingTop=-20;whiteSpace=wrap;overflow=hidden;rounded=0;" vertex="1" parent="1">
          <mxGeometry x="160" y="390" width="190" height="120" as="geometry" />
        </mxCell>
        <mxCell id="X4vbP3AqPGzp89t7xBtQ-11" value="&lt;h1 style=&quot;border-color: var(--border-color);&quot;&gt;Trabalhos&lt;/h1&gt;&lt;h1&gt;&lt;p style=&quot;border-color: var(--border-color); font-size: 12px; font-weight: 400;&quot;&gt;Etc&lt;br style=&quot;border-color: var(--border-color);&quot;&gt;Etc&lt;br style=&quot;border-color: var(--border-color);&quot;&gt;Etc&lt;/p&gt;&lt;/h1&gt;" style="text;html=1;strokeColor=none;fillColor=none;spacing=5;spacingTop=-20;whiteSpace=wrap;overflow=hidden;rounded=0;" vertex="1" parent="1">
          <mxGeometry x="150" y="605" width="190" height="120" as="geometry" />
        </mxCell>
        <mxCell id="X4vbP3AqPGzp89t7xBtQ-13" value="" style="endArrow=none;html=1;rounded=0;exitX=0.004;exitY=0.853;exitDx=0;exitDy=0;exitPerimeter=0;entryX=1.007;entryY=0.846;entryDx=0;entryDy=0;entryPerimeter=0;" edge="1" parent="1" source="X4vbP3AqPGzp89t7xBtQ-2" target="X4vbP3AqPGzp89t7xBtQ-2">
          <mxGeometry width="50" height="50" relative="1" as="geometry">
            <mxPoint x="390" y="820" as="sourcePoint" />
            <mxPoint x="440" y="770" as="targetPoint" />
          </mxGeometry>
        </mxCell>
        <mxCell id="X4vbP3AqPGzp89t7xBtQ-14" value="&lt;font style=&quot;font-size: 21px;&quot;&gt;Contato&lt;/font&gt;" style="text;html=1;strokeColor=none;fillColor=none;align=center;verticalAlign=middle;whiteSpace=wrap;rounded=0;" vertex="1" parent="1">
          <mxGeometry x="300" y="900" width="190" height="70" as="geometry" />
        </mxCell>
        <mxCell id="X4vbP3AqPGzp89t7xBtQ-15" value="&lt;font style=&quot;font-size: 16px;&quot;&gt;email&lt;/font&gt;" style="text;html=1;strokeColor=none;fillColor=none;align=center;verticalAlign=middle;whiteSpace=wrap;rounded=0;" vertex="1" parent="1">
          <mxGeometry x="200" y="980" width="60" height="30" as="geometry" />
        </mxCell>
        <mxCell id="X4vbP3AqPGzp89t7xBtQ-16" value="&lt;font style=&quot;font-size: 16px;&quot;&gt;Github&lt;/font&gt;" style="text;html=1;strokeColor=none;fillColor=none;align=center;verticalAlign=middle;whiteSpace=wrap;rounded=0;" vertex="1" parent="1">
          <mxGeometry x="500" y="980" width="60" height="30" as="geometry" />
        </mxCell>
      </root>
    </mxGraphModel>
  </diagram>
</mxfile>
